<svg xmlns="http://www.w3.org/2000/svg" viewBox="0 0 417 257.67"><defs><style>.cls-1{fill:#f23005;}.cls-2{fill:#417e3c;}.cls-12,.cls-16,.cls-3{fill:#f2cb05;}.cls-4{fill:#8cbf3f;}.cls-5{fill:#fe4c00;}.cls-6{font-size:50px;fill:#fff;font-family:Shackleton-Condensed, Shackleton;letter-spacing:0em;}.cls-7{letter-spacing:0.03em;}.cls-8{letter-spacing:0.02em;}.cls-9{letter-spacing:-0.02em;}.cls-10{letter-spacing:0em;}.cls-11{letter-spacing:-0.01em;}.cls-12,.cls-16{font-size:18px;font-family:Americane-Black, Americane;font-weight:800;}.cls-12,.cls-17{letter-spacing:0.26em;}.cls-13{letter-spacing:0.24em;}.cls-14{letter-spacing:0.24em;}.cls-15{letter-spacing:0.26em;}.cls-16{letter-spacing:0.24em;}.cls-18{letter-spacing:0.24em;}.cls-19{letter-spacing:0.26em;}</style></defs><g id="Layer_2" data-name="Layer 2"><g id="Logo_06:_600_x_600_px" data-name="Logo 06: 600 x 600 px"><g id="Graphic_Elements" data-name="Graphic Elements"><path class="cls-1" d="M242.71,32.3H177a65.42,65.42,0,0,0-30.27,7.37,61.42,61.42,0,0,1,0,116.67A65.42,65.42,0,0,0,177,163.71h65.71V32.3"/><path class="cls-2" d="M326.22,32.3a32.87,32.87,0,0,0-31.13,22.33,72.36,72.36,0,0,1,20.22,50.27v30.88H293.37v27.93h65.7V65.15A32.85,32.85,0,0,0,326.22,32.3"/><path class="cls-3" d="M242.71,32.3V135.78h50.66V65.15a32.68,32.68,0,0,1,1.72-10.52A72.41,72.41,0,0,0,242.71,32.3"/><path class="cls-4" d="M295.09,54.63a32.68,32.68,0,0,0-1.72,10.52v70.63h21.94V104.9a72.36,72.36,0,0,0-20.22-50.27"/><path class="cls-3" d="M127.53,36.61a61.39,61.39,0,1,0,19.2,119.73,65.73,65.73,0,0,1,0-116.67,61.52,61.52,0,0,0-19.2-3.06"/><path class="cls-5" d="M146.73,39.67a65.73,65.73,0,0,0,0,116.67,61.42,61.42,0,0,0,0-116.67"/><rect class="cls-2" x="161.11" y="230.77" width="255.69" height="26.91"/></g><g id="Text"><text class="cls-6" transform="translate(4.21 219.05)">M<tspan class="cls-7" x="35.9" y="0">O</tspan><tspan class="cls-8" x="63.65" y="0">O</tspan><tspan x="90.9" y="0">SE ON</tspan><tspan class="cls-9" x="200.1" y="0"> </tspan><tspan class="cls-10" x="207.3" y="0">THE </tspan><tspan class="cls-11" x="291.14" y="0">L</tspan><tspan class="cls-7" x="312.79" y="0">O</tspan><tspan class="cls-8" x="340.54" y="0">O</tspan><tspan x="367.79" y="0">SE</tspan></text><text class="cls-12" transform="translate(187.93 250.72)">WILDLIFE<tspan class="cls-13" x="118.24" y="0"> </tspan><tspan class="cls-14" x="125.67" y="0">T</tspan><tspan class="cls-15" x="140.27" y="0">OURS</tspan></text><text class="cls-16" transform="translate(0 15.11)">L<tspan class="cls-17" x="13.57" y="0">ORD RHU</tspan><tspan class="cls-18" x="124.29" y="0">B</tspan><tspan class="cls-19" x="140.36" y="0">ARB’S</tspan></text></g></g></g></svg>