<svg xmlns="http://www.w3.org/2000/svg" viewBox="0 0 415.95 254.97"><defs><style>.cls-1{fill:#f23005;}.cls-2{fill:#417e3c;}.cls-3{fill:#f2cb05;}.cls-4{fill:#8cbf3f;}.cls-5{fill:#fe4c00;}.cls-6{fill:#fff;}</style></defs><g id="Layer_2" data-name="Layer 2"><g id="Logo_06:_600_x_600_px" data-name="Logo 06: 600 x 600 px"><g id="Graphic_Elements" data-name="Graphic Elements"><path class="cls-1" d="M241.86,29.59H176.15A65.46,65.46,0,0,0,145.88,37a61.41,61.41,0,0,1,0,116.66A65.45,65.45,0,0,0,176.15,161h65.71V29.59"/><path class="cls-2" d="M325.37,29.59a32.88,32.88,0,0,0-31.13,22.33,72.34,72.34,0,0,1,20.22,50.28v30.87H292.52V161h65.71V62.45a32.86,32.86,0,0,0-32.86-32.86"/><path class="cls-3" d="M241.86,29.59V133.07h50.66V62.45a33.06,33.06,0,0,1,1.72-10.53,72.41,72.41,0,0,0-52.38-22.33"/><path class="cls-4" d="M294.24,51.92a33.06,33.06,0,0,0-1.72,10.53v70.62h21.94V102.2a72.34,72.34,0,0,0-20.22-50.28"/><path class="cls-3" d="M126.69,33.91a61.39,61.39,0,1,0,19.19,119.72,65.73,65.73,0,0,1,0-116.66,61.21,61.21,0,0,0-19.19-3.06"/><path class="cls-5" d="M145.88,37a65.73,65.73,0,0,0,0,116.66,61.41,61.41,0,0,0,0-116.66"/><rect class="cls-2" x="160.26" y="228.06" width="255.69" height="26.91"/></g><g id="Text"><path class="cls-6" d="M4.37,216.25c1.35-.6,2.35-1.6,2.35-4.05V185.49c0-2.45-1-3.45-2.35-4.05v-.1h8.7L21.22,200l8.15-18.7h8.7v.1c-1.35.6-2.35,1.6-2.35,4.05V212.2c0,2.45,1,3.45,2.35,4.05v.1H26.92v-.1c1.35-.6,2.35-1.6,2.35-4.05V196.14l-8,17.21-8-17.21V212.2c0,2.45,1,3.45,2.35,4.05v.1H4.37Z"/><path class="cls-6" d="M39.77,198.84c0-10.8,5.2-18,12.65-18s12.65,7.2,12.65,18-5.2,18-12.65,18S39.77,209.65,39.77,198.84Zm18.25,0c0-6.65-2.25-11.25-5.6-11.25s-5.6,4.6-5.6,11.25,2.25,11.25,5.6,11.25S58,205.5,58,198.84Z"/><path class="cls-6" d="M67.51,198.84c0-10.8,5.2-18,12.66-18s12.65,7.2,12.65,18-5.2,18-12.65,18S67.51,209.65,67.51,198.84Zm18.26,0c0-6.65-2.25-11.25-5.6-11.25s-5.6,4.6-5.6,11.25,2.25,11.25,5.6,11.25S85.77,205.5,85.77,198.84Z"/><path class="cls-6" d="M98.66,215.5a2.39,2.39,0,0,0-2.15,1.2l-1.6-14.61.2-.05c2.3,4.8,6.1,8.11,9.35,8.11a3.25,3.25,0,0,0,3.55-3.31c0-2.09-2.8-3.5-6-5.65s-6.9-4.95-6.9-10.5a9.81,9.81,0,0,1,10.15-9.85c3.1,0,4.61,1,5.7,1a1.81,1.81,0,0,0,1.66-.85l.84,12.65-.2.05c-1.6-3.8-4.6-6.3-7.65-6.3a3.32,3.32,0,0,0-3.6,3.3c0,2.05,1.75,3.25,4.25,4.9,3.5,2.35,8.76,5.25,8.7,11.25a9.91,9.91,0,0,1-10.15,10C101.76,216.85,100,215.5,98.66,215.5Z"/><path class="cls-6" d="M138.92,207.84l-2.15,8.51H116.46v-.1c1.35-.6,2.35-1.6,2.35-4.05V185.49c0-2.45-1-3.45-2.35-4.05v-.1h19.91l2,8.55-.16.1c-2.09-2.2-4.25-2.4-7.15-2.4h-5.4v7.85h4.15c2.45,0,3.45-1,4.06-2.35H134V204h-.09c-.61-1.35-1.61-2.35-4.06-2.35h-4.15v8.4h5.8c2.91,0,5.11-.19,7.25-2.34Z"/><path class="cls-6" d="M148,198.84c0-10.8,5.2-18,12.65-18s12.65,7.2,12.65,18-5.2,18-12.65,18S148,209.65,148,198.84Zm18.25,0c0-6.65-2.25-11.25-5.6-11.25s-5.6,4.6-5.6,11.25,2.25,11.25,5.6,11.25S166.21,205.5,166.21,198.84Z"/><path class="cls-6" d="M175,216.25c1.35-.6,2.35-1.6,2.35-4.05V185.49c0-2.45-1-3.45-2.35-4.05v-.1h8.35l10.2,21.3V185.49c0-2.45-1-3.45-2.35-4.05v-.1h11.1v.1c-1.35.6-2.35,1.6-2.35,4.05V212.2c0,2.45,1,3.45,2.35,4.05v.1h-8.35L183.71,195V212.2c0,2.45,1,3.45,2.35,4.05v.1H175Z"/><path class="cls-6" d="M225.71,212.2c0,2.45,1,3.45,2.35,4.05v.1H216.51v-.1c1.35-.6,2.35-1.6,2.35-4.05V187.59h-1.2c-2.9,0-5.1.2-7.25,2.35l-.1-.05,2.3-8.55H232l2.3,8.55-.1.05c-2.15-2.15-4.35-2.35-7.25-2.35h-1.2Z"/><path class="cls-6" d="M259,185.49V212.2c0,2.45,1,3.45,2.35,4.05v.1H249.76v-.1c1.35-.6,2.35-1.6,2.35-4.05V202.09h-7.8V212.2c0,2.45,1,3.45,2.35,4.05v.1H235.11v-.1c1.35-.6,2.35-1.6,2.35-4.05V185.49c0-2.45-1-3.45-2.35-4.05v-.1h11.55v.1c-1.35.6-2.35,1.6-2.35,4.05v9.9h7.8v-9.9c0-2.45-1-3.45-2.35-4.05v-.1h11.55v.1C260,182,259,183,259,185.49Z"/><path class="cls-6" d="M286,207.84l-2.15,8.51h-20.3v-.1c1.35-.6,2.35-1.6,2.35-4.05V185.49c0-2.45-1-3.45-2.35-4.05v-.1h19.9l2,8.55-.15.1c-2.1-2.2-4.25-2.4-7.15-2.4h-5.4v7.85h4.15c2.45,0,3.45-1,4.05-2.35h.1V204h-.1c-.6-1.35-1.6-2.35-4.05-2.35h-4.15v8.4h5.8c2.9,0,5.1-.19,7.25-2.34Z"/><path class="cls-6" d="M316.91,207.79l-2.3,8.56h-19.1v-.1c1.35-.6,2.35-1.6,2.35-4.05V185.49c0-2.45-1-3.45-2.35-4.05v-.1h11.55v.1c-1.35.6-2.35,1.6-2.35,4.05v24.6h4.85c2.9,0,5.1-.19,7.25-2.34Z"/><path class="cls-6" d="M316.66,198.84c0-10.8,5.2-18,12.65-18S342,188,342,198.84s-5.2,18-12.65,18S316.66,209.65,316.66,198.84Zm18.25,0c0-6.65-2.25-11.25-5.6-11.25s-5.6,4.6-5.6,11.25,2.25,11.25,5.6,11.25S334.91,205.5,334.91,198.84Z"/><path class="cls-6" d="M344.41,198.84c0-10.8,5.2-18,12.65-18s12.65,7.2,12.65,18-5.2,18-12.65,18S344.41,209.65,344.41,198.84Zm18.25,0c0-6.65-2.25-11.25-5.6-11.25s-5.6,4.6-5.6,11.25,2.25,11.25,5.6,11.25S362.66,205.5,362.66,198.84Z"/><path class="cls-6" d="M375.56,215.5a2.39,2.39,0,0,0-2.15,1.2l-1.6-14.61.2-.05c2.3,4.8,6.1,8.11,9.35,8.11a3.25,3.25,0,0,0,3.55-3.31c0-2.09-2.8-3.5-6-5.65s-6.9-4.95-6.9-10.5a9.81,9.81,0,0,1,10.15-9.85c3.1,0,4.6,1,5.7,1a1.79,1.79,0,0,0,1.65-.85l.85,12.65-.2.05c-1.6-3.8-4.6-6.3-7.65-6.3a3.32,3.32,0,0,0-3.6,3.3c0,2.05,1.75,3.25,4.25,4.9,3.5,2.35,8.75,5.25,8.7,11.25a9.91,9.91,0,0,1-10.15,10C378.66,216.85,376.91,215.5,375.56,215.5Z"/><path class="cls-6" d="M415.81,207.84l-2.15,8.51h-20.3v-.1c1.35-.6,2.35-1.6,2.35-4.05V185.49c0-2.45-1-3.45-2.35-4.05v-.1h19.9l2,8.55-.15.1c-2.1-2.2-4.25-2.4-7.15-2.4h-5.4v7.85h4.15c2.45,0,3.45-1,4.05-2.35h.1V204h-.1c-.6-1.35-1.6-2.35-4.05-2.35h-4.15v8.4h5.8c2.9,0,5.1-.19,7.25-2.34Z"/><path class="cls-3" d="M202.26,248h-3.95l-2.17-6.5-2,6.5h-3.28L187,235.79H192l1.49,5.62,1.42-5.62h4l1.69,5.65,1.4-5.65h3.91Z"/><path class="cls-3" d="M215.45,235.79V248h-4V235.79Z"/><path class="cls-3" d="M221.78,235.79h4v8.68h4.12V248h-8.16Z"/><path class="cls-3" d="M235.64,235.79h5.75c3.53,0,5.51,2.74,5.51,6.18,0,3.65-2,6.05-5.51,6.05h-5.75Zm4.05,8.88h1.19c1,0,1.68-.74,1.68-2.69s-.7-2.84-1.69-2.84h-1.18Z"/><path class="cls-3" d="M252.73,235.79h4v8.68h4.12V248h-8.15Z"/><path class="cls-3" d="M270.62,235.79V248h-4V235.79Z"/><path class="cls-3" d="M277,235.79h8.65v3.53H281v1.55h3.48v3H281V248H277Z"/><path class="cls-3" d="M291.46,235.79h8.68v3.53h-4.63v1.12h2.78v2.8h-2.78v1.23h4.68V248h-8.73Z"/><path class="cls-3" d="M322.75,239.32h-2.88V248h-4.05v-8.7H313v-3.53h9.76Z"/><path class="cls-3" d="M327.68,242c0-3.56,2.07-6.37,6.37-6.37s6.3,2.81,6.3,6.37c0,3.77-2.37,6.22-6.3,6.22S327.68,245.75,327.68,242Zm6.32,2.69c1.06,0,2-.51,2-2.76s-.95-2.77-2-2.77-2,.5-2,2.77S333,244.67,334,244.67Z"/><path class="cls-3" d="M346.05,243.53v-7.74h4v7c0,1.39.72,1.84,1.49,1.84.92,0,1.59-.42,1.59-1.87v-7h3.22v7.45c0,3.93-2.41,5-5,5C348.54,248.2,346.05,247.15,346.05,243.53Z"/><path class="cls-3" d="M371.08,242.36c.75.16,1.46.58,1.78,2l.45,1.89c.09.39.27.65.58.65V248H370.7c-.83,0-1.48-.2-1.73-1.64l-.31-1.79c-.1-.59-.28-.86-1.08-.86h-.95V248h-4V235.79h6.93a3.34,3.34,0,0,1,3.58,3.51,2.83,2.83,0,0,1-2,3Zm-4.45-1.56h1.6a.83.83,0,1,0,0-1.66h-1.58Z"/><path class="cls-3" d="M384.61,244.74c0-.31-.3-.52-1.22-.81l-1.24-.38a3.92,3.92,0,0,1-3.14-3.8c0-2.66,2-4.14,4.95-4.14a11.33,11.33,0,0,1,4.72,1.06l-.85,3a5.42,5.42,0,0,0-3.22-1.3c-.65,0-1,.27-1,.61s.31.44,1.3.76l1.27.43c2.34.79,3.12,2.16,3.12,3.78,0,2.9-2.14,4.22-5,4.22a9.71,9.71,0,0,1-5.34-1.43l.95-3a6.43,6.43,0,0,0,3.75,1.61C384.14,245.41,384.61,245.24,384.61,244.74Z"/><path class="cls-3" d="M0,.18H4V8.86H8.16v3.55H0Z"/><path class="cls-3" d="M13.05,6.37C13.05,2.81,15.12,0,19.42,0s6.31,2.81,6.31,6.37c0,3.77-2.38,6.21-6.31,6.21S13.05,10.14,13.05,6.37Zm6.32,2.69c1.06,0,2-.51,2-2.76s-1-2.77-2-2.77-2,.5-2,2.77S18.4,9.06,19.37,9.06Z"/><path class="cls-3" d="M40,6.75c.75.16,1.45.58,1.78,2l.45,1.89c.09.39.27.65.58.65v1.08H39.64c-.83,0-1.48-.2-1.73-1.64L37.6,9c-.1-.59-.28-.86-1.08-.86h-1v4.29h-4V.18h6.93a3.34,3.34,0,0,1,3.58,3.51,2.83,2.83,0,0,1-2,3ZM35.57,5.19h1.6A.77.77,0,0,0,38,4.32a.77.77,0,0,0-.85-.79H35.57Z"/><path class="cls-3" d="M48.37.18h5.74c3.53,0,5.51,2.74,5.51,6.18,0,3.65-2,6.05-5.51,6.05H48.37Zm4.05,8.88H53.6c1,0,1.68-.74,1.68-2.69s-.7-2.84-1.69-2.84H52.42Z"/><path class="cls-3" d="M81.78,6.75c.75.16,1.45.58,1.78,2L84,10.68c.09.39.27.65.57.65v1.08H81.4c-.83,0-1.48-.2-1.73-1.64L79.36,9c-.11-.59-.28-.86-1.08-.86h-1v4.29h-4V.18h6.94a3.34,3.34,0,0,1,3.58,3.51,2.83,2.83,0,0,1-2,3ZM77.33,5.19h1.6a.77.77,0,0,0,.83-.87.77.77,0,0,0-.85-.79H77.33Z"/><path class="cls-3" d="M94.16.18V4.46h3.31V.18h4V12.41h-4V8.1H94.16v4.31h-4V.18Z"/><path class="cls-3" d="M107.75,7.92V.18h4v7c0,1.39.72,1.84,1.5,1.84s1.58-.42,1.58-1.87v-7h3.22V7.63c0,3.93-2.41,5-5,5C110.23,12.58,107.75,11.54,107.75,7.92Z"/><path class="cls-3" d="M124.29.18h6.43c2.52,0,4.08,1.37,4,3.38A2.78,2.78,0,0,1,133,6.18v.07A2.58,2.58,0,0,1,134.8,9c0,2.08-1.09,3.44-4.05,3.44h-6.46Zm4,4.86h1.62a.74.74,0,0,0,.81-.84.74.74,0,0,0-.81-.8h-1.62Zm0,4.23h1.62a.73.73,0,0,0,.78-.83.73.73,0,0,0-.78-.79h-1.62Z"/><path class="cls-3" d="M143.41.18h4.25l4.06,12.23h-5l-.38-1.61h-2.75l-.35,1.61h-3.67ZM144,8h2L144.92,4.3Z"/><path class="cls-3" d="M165.62,6.75c.76.16,1.46.58,1.78,2l.45,1.89c.09.39.27.65.58.65v1.08h-3.19c-.83,0-1.48-.2-1.73-1.64L163.21,9c-.11-.59-.29-.86-1.08-.86h-1v4.29h-4V.18h6.93a3.34,3.34,0,0,1,3.58,3.51,2.83,2.83,0,0,1-2,3Zm-4.45-1.56h1.6a.77.77,0,0,0,.83-.87.76.76,0,0,0-.84-.79h-1.59Z"/><path class="cls-3" d="M174,.18h6.43c2.52,0,4.08,1.37,4,3.38a2.78,2.78,0,0,1-1.73,2.62v.07A2.58,2.58,0,0,1,184.48,9c0,2.08-1.1,3.44-4,3.44H174ZM178,5h1.62a.74.74,0,0,0,.81-.84.74.74,0,0,0-.81-.8H178Zm0,4.23h1.62a.73.73,0,0,0,.78-.83.73.73,0,0,0-.78-.79H178Z"/><path class="cls-3" d="M190.15.18h4.32V3.64l-1,4.17h-2l.81-3.31h-2.11Z"/><path class="cls-3" d="M205.79,9.13c0-.31-.3-.52-1.22-.81l-1.24-.38a3.92,3.92,0,0,1-3.14-3.8c0-2.66,2-4.14,5-4.14a11.32,11.32,0,0,1,4.71,1.06l-.84,3a5.45,5.45,0,0,0-3.23-1.3c-.64,0-1,.27-1,.61s.31.43,1.3.76l1.28.43c2.34.79,3.11,2.16,3.11,3.78,0,2.9-2.14,4.21-5,4.21a9.77,9.77,0,0,1-5.35-1.42l1-3a6.41,6.41,0,0,0,3.75,1.6C205.33,9.79,205.79,9.63,205.79,9.13Z"/></g></g></g></svg>